<svg width="22" height="32" viewBox="0 0 22 32" xmlns="http://www.w3.org/2000/svg"><title>Shape</title><path d="M18.0385714,19.2 C18.0385714,19.2 15.9587143,15.36 15.9587143,9.8144 C15.9554286,0 21.9781429,0 21.9781429,0 L21.9781426,32 L18.0385715,32 L18.0385714,19.2 Z M7.95800018,30.9999999 L3.94285733,30.9999999 L4.01514286,14.4304 C0.144571429,14.4304 0.0722857143,10.52 0.0722857143,10.52 L0,0.2992 L2.40842857,0.2992 L2.40842857,10.3088 C2.40842857,10.8976 2.898,11.3744 3.50257143,11.3744 C4.10714286,11.3744 4.6,10.8944 4.6,10.3088 L4.6,0.2992 L7.22857143,0.2992 L7.22857143,10.3056 C7.22857143,10.8944 7.72142857,11.3712 8.32271429,11.3712 C8.92728571,11.3712 9.41685714,10.8944 9.41685714,10.3056 L9.41685714,0.2992 L11.8285714,0.2992 L11.8285714,10.52 C11.8285714,10.52 11.9008571,14.36 7.958,14.36 L7.95800018,30.9999999 Z" fill="#ED8C00" fill-rule="evenodd"/></svg>