<svg width="21" height="32" viewBox="0 0 21 32" xmlns="http://www.w3.org/2000/svg"><title>Shape</title><path d="M10.0433333,0 C9.93,0 9.82333333,0.0544 9.75333333,0.1408 C9.35666667,0.6656 0,14.0784 0,20.3344 C0,31.1792 8.36666639,32 10.0433331,32 C11.7299997,32 20.14,31.1792 20.14,20.3344 C20.14,14.1648 10.7366667,0.672 10.3366667,0.1408 C10.27,0.0544 10.16,0 10.0433333,0 Z M7.67333333,21.6416 C7.99333333,22.1408 8.29666667,22.6144 8.47,23.408 C8.62666667,24.0992 8.48333333,24.752 8.07,25.2448 C7.69666667,25.6896 7.13666667,25.9424 6.53333333,25.9424 C6.13333333,25.9424 5.72666667,25.8304 5.35666667,25.6128 C3.79333333,24.7008 2.86333333,21.6288 3.24,18.6176 C3.59666667,15.776 6.27666667,10.5952 6.39,10.3776 C6.47333333,10.2144 6.67333333,10.144 6.85,10.2144 C7.02333333,10.2816 7.11333333,10.4704 7.05333333,10.6432 C5.74,14.4256 6.13,17.2032 6.61333333,19.2 C6.92,20.4576 7.30333333,21.0592 7.67333333,21.6416 Z" fill="#ED8C00" fill-rule="evenodd"/></svg>