<svg width="32" height="32" viewBox="0 0 32 32" xmlns="http://www.w3.org/2000/svg"><title>Shape</title><path d="M32,16 C32,16.882 30.225,17.679 27.354,18.258 C29.785,19.893 31.119,21.309 30.781,22.122 C30.444,22.936 28.499,22.995 25.625,22.431 C27.246,24.871 27.936,26.69 27.313,27.313 C26.69,27.936 24.871,27.246 22.431,25.625 C22.994,28.499 22.936,30.443 22.122,30.78 C21.308,31.117 19.892,29.784 18.258,27.353 C17.679,30.225 16.881,32 16,32 C15.118,32 14.321,30.225 13.742,27.354 C12.107,29.785 10.691,31.118 9.877,30.781 C9.063,30.444 9.005,28.499 9.568,25.625 C7.128,27.245 5.309,27.936 4.686,27.313 C4.063,26.69 4.753,24.871 6.374,22.431 C3.5,22.994 1.555,22.936 1.218,22.122 C0.881,21.309 2.215,19.893 4.646,18.258 C1.774,17.679 0,16.882 0,16 C0,15.119 1.774,14.321 4.646,13.742 C2.215,12.108 0.881,10.692 1.218,9.877 C1.555,9.063 3.5,9.005 6.374,9.568 C4.753,7.128 4.063,5.31 4.686,4.687 C5.309,4.064 7.128,4.754 9.568,6.375 C9.004,3.5 9.062,1.555 9.877,1.218 C10.69,0.881 12.106,2.215 13.741,4.646 C14.321,1.774 15.118,0 16,0 C16.881,0 17.679,1.774 18.258,4.646 C19.892,2.216 21.308,0.881 22.122,1.219 C22.936,1.556 22.994,3.501 22.431,6.375 C24.871,4.754 26.69,4.064 27.313,4.687 C27.936,5.31 27.246,7.129 25.626,9.569 C28.5,9.006 30.444,9.064 30.781,9.878 C31.118,10.692 29.784,12.108 27.354,13.743 C30.225,14.321 32,15.119 32,16 L32,16 Z M19.28,11.557 C19.37,11.557 19.438,11.49 19.483,11.377 L20.18,9.847 C20.225,9.756 20.247,9.69 20.247,9.599 C20.247,8.835 17.369,8.34 16.715,8.294 L16.715,7.193 C16.715,6.81 16.647,6.743 16.243,6.743 L15.792,6.743 C15.388,6.743 15.321,6.81 15.321,7.193 L15.321,8.295 C14.285,8.341 11.362,9.285 11.362,12.592 C11.362,15.562 13.949,16.349 15.321,16.956 L15.321,21.366 C13.948,21.208 12.441,20.33 12.306,20.33 C12.216,20.33 12.125,20.466 12.103,20.511 L11.451,22.401 C11.406,22.536 11.406,22.536 11.406,22.604 C11.406,23.278 14.556,23.796 15.321,23.796 L15.321,24.807 C15.321,25.191 15.388,25.258 15.792,25.258 L16.243,25.258 C16.647,25.258 16.715,25.191 16.715,24.807 L16.715,23.796 C18.2,23.549 20.651,22.514 20.651,19.387 C20.651,16.508 18.178,15.541 16.715,14.821 L16.715,10.66 C17.683,10.657 19.145,11.557 19.28,11.557 L19.28,11.557 Z M18.065,19.52 C18.065,20.757 17.211,21.185 16.558,21.365 L16.558,17.472 C17.076,17.743 18.065,18.215 18.065,19.52 L18.065,19.52 Z M13.949,12.412 C13.949,11.085 15.029,10.77 15.479,10.658 L15.479,14.325 C14.982,14.098 13.949,13.626 13.949,12.412 L13.949,12.412 Z" fill-rule="evenodd"/></svg>