<svg width="32" height="32" viewBox="0 0 32 32" xmlns="http://www.w3.org/2000/svg"><title>Shape</title><path d="M28.6250704,31.7116493 C27.8346704,31.7116493 27.0442704,31.4108493 26.4394704,30.8060493 L17.2474704,21.6140493 L15.8906704,20.2604493 C15.5450704,18.4716493 14.4058704,16.2764493 11.8074704,13.6780493 C9.55787039,11.4284493 7.41387039,10.0716493 5.41387039,9.63004933 C5.44267039,9.00284933 5.61547039,8.39804933 5.96747039,7.82844933 C6.13707039,7.55004933 6.34827039,7.28124933 6.60747039,7.02204933 C6.63307039,6.99644933 6.66187039,6.97404933 6.68747039,6.95164933 C7.50667039,6.16764933 8.42507039,5.82204933 9.40107039,5.82204933 C11.5130704,5.82204933 13.8682704,7.41564933 15.9706704,9.51804933 C17.7818704,11.3324493 19.2154704,13.3324493 19.5770704,15.2044493 L21.3530704,16.9804493 L30.8074704,26.4380493 C32.0138704,27.6444493 32.0138704,29.5996493 30.8074704,30.8060493 C30.2058704,31.4108493 29.4154704,31.7116493 28.6250704,31.7116493 Z M21.1578704,14.2380493 C21.1194704,14.0972493 21.0746704,13.9532493 21.0234704,13.8124493 C20.4186704,12.0556493 19.1386704,10.1932493 17.2186704,8.27004933 C15.1258704,6.18044933 13.1258704,4.85884933 11.2506704,4.32764933 C11.1610704,3.19804933 11.5002704,2.12924933 12.4346704,1.19804933 C15.0330704,-1.40035067 18.6938704,0.593249332 21.7946704,3.69404933 C24.8986704,6.79804933 26.8922704,10.4556493 24.2906704,13.0572493 C23.3594704,13.9884493 22.2874704,14.3276493 21.1578704,14.2380493 L21.1578704,14.2380493 Z M10.5594704,14.9292493 C13.6634704,18.0332493 15.6570704,21.6908493 13.0554704,24.2892493 C12.9594704,24.3852493 12.8634704,24.4716493 12.7642704,24.5548493 C12.7354704,24.5804493 12.7066704,24.6028493 12.6746704,24.6284493 C12.6042704,24.6828493 12.5338704,24.7372493 12.4634704,24.7916493 C12.4314704,24.8140493 12.3962704,24.8364493 12.3642704,24.8588493 C12.2842704,24.9100493 12.2010704,24.9580493 12.1242704,25.0060493 C12.0986704,25.0188493 12.0762704,25.0316493 12.0570704,25.0444493 C11.9514704,25.1020493 11.8490704,25.1500493 11.7402704,25.1948493 C11.7146704,25.2044493 11.6890704,25.2140493 11.6666704,25.2236493 C11.5834704,25.2556493 11.5002704,25.2876493 11.4170704,25.3132493 C11.3818704,25.3228493 11.3466704,25.3324493 11.3114704,25.3452493 C11.2314704,25.3676493 11.1514704,25.3868493 11.0714704,25.4028493 C11.0394704,25.4092493 11.0074704,25.4188493 10.9786704,25.4220493 C10.8666704,25.4444493 10.7546704,25.4604493 10.6426704,25.4700493 C10.5178704,25.4796493 10.4090704,25.4860493 10.3002704,25.4860493 C10.2458704,25.4860493 10.2234704,25.4828493 10.2010704,25.4828493 C10.1114704,25.4828493 10.0186704,25.4764493 9.92907039,25.4700493 C9.89387039,25.4700493 9.86187039,25.4668493 9.82987039,25.4636493 C9.70827039,25.4540493 9.58987039,25.4380493 9.46507039,25.4156493 C9.33067039,25.3932493 9.21547039,25.3676493 9.10027039,25.3356493 C9.06507039,25.3292493 9.02667039,25.3196493 8.99147039,25.3100493 C8.89867039,25.2844493 8.80267039,25.2556493 8.70987039,25.2268493 C8.67787039,25.2172493 8.64267039,25.2076493 8.61387039,25.1948493 C8.48907039,25.1532493 8.36427039,25.1084493 8.24267039,25.0604493 C8.22347039,25.0540493 8.20107039,25.0412493 8.17867039,25.0348493 C8.07307039,24.9900493 7.97067039,24.9452493 7.86507039,24.8972493 C7.82667039,24.8780493 7.79147039,24.8620493 7.74987039,24.8428493 C7.65387039,24.7980493 7.55787039,24.7500493 7.46187039,24.6988493 C7.43307039,24.6828493 7.40107039,24.6668493 7.36907039,24.6508493 C7.24747039,24.5836493 7.12267039,24.5132493 6.99787039,24.4396493 C6.96907039,24.4236493 6.94027039,24.4044493 6.91147039,24.3884493 C6.81547039,24.3308493 6.71627039,24.2700493 6.62027039,24.2060493 C6.57867039,24.1804493 6.54027039,24.1548493 6.49867039,24.1292493 C6.39947039,24.0652493 6.30027039,23.9980493 6.20107039,23.9276493 C6.17547039,23.9084493 6.14987039,23.8924493 6.12427039,23.8732493 C5.99947039,23.7868493 5.87787039,23.6940493 5.75307039,23.6012493 C5.72107039,23.5756493 5.68587039,23.5500493 5.65387039,23.5244493 C5.56107039,23.4540493 5.46827039,23.3804493 5.37547039,23.3068493 C5.33707039,23.2748493 5.29867039,23.2460493 5.26347039,23.2140493 C5.15467039,23.1276493 5.04907039,23.0380493 4.94027039,22.9484493 C4.92747039,22.9324493 4.90827039,22.9228493 4.89227039,22.9068493 C4.77067039,22.8012493 4.64907039,22.6956493 4.53067039,22.5868493 C4.49547039,22.5548493 4.46347039,22.5260493 4.42827039,22.4908493 C4.33547039,22.4076493 4.24587039,22.3276493 4.15627039,22.2412493 C4.12107039,22.2060493 4.08587039,22.1740493 4.05067039,22.1388493 C3.93227039,22.0268493 3.81067039,21.9116493 3.69547039,21.7932493 C0.594670386,18.6892493 -1.40212961,15.0316493 1.19947039,12.4300493 C1.29547039,12.3340493 1.39147039,12.2476493 1.49067039,12.1644493 C1.51947039,12.1388493 1.54827039,12.1196493 1.57707039,12.0940493 C1.64747039,12.0364493 1.72107039,11.9820493 1.79467039,11.9308493 C1.82667039,11.9084493 1.85867039,11.8860493 1.88747039,11.8636493 C1.97067039,11.8092493 2.05387039,11.7580493 2.13707039,11.7132493 C2.15627039,11.7036493 2.17867039,11.6908493 2.19787039,11.6780493 C2.30347039,11.6204493 2.40907039,11.5692493 2.51787039,11.5244493 C2.54027039,11.5148493 2.56267039,11.5084493 2.58507039,11.4988493 C2.67147039,11.4636493 2.75787039,11.4348493 2.84427039,11.4060493 C2.87947039,11.3964493 2.91147039,11.3868493 2.94347039,11.3772493 C3.02347039,11.3548493 3.10667039,11.3356493 3.18987039,11.3164493 C3.21867039,11.3100493 3.25067039,11.3036493 3.27947039,11.2972493 C3.38827039,11.2780493 3.50027039,11.2620493 3.61547039,11.2492493 C3.73387039,11.2396493 3.84267039,11.2364493 3.95467039,11.2364493 L4.04747039,11.2364493 C4.14027039,11.2364493 4.23307039,11.2428493 4.32587039,11.2492493 C4.35787039,11.2492493 4.38987039,11.2524493 4.42187039,11.2556493 C4.54347039,11.2684493 4.66187039,11.2812493 4.78667039,11.3036493 C4.92107039,11.3260493 5.03627039,11.3516493 5.15147039,11.3804493 C5.18667039,11.3868493 5.22507039,11.3996493 5.26027039,11.4092493 C5.35307039,11.4348493 5.44587039,11.4604493 5.53867039,11.4892493 C5.57707039,11.5052493 5.61227039,11.5148493 5.64747039,11.5276493 C7.28587039,12.0780493 8.99467039,13.3612493 10.5594704,14.9292493 Z" fill="#ED8C00" fill-rule="evenodd"/></svg>