<svg viewBox="0 0 187 34" xmlns="http://www.w3.org/2000/svg" fill-rule="evenodd" clip-rule="evenodd" stroke-linejoin="round" stroke-miterlimit="1.414"><g fill="#fff" fill-rule="nonzero"><path d="M0,26.352l9.288,0l0.828,-3.6l-3.204,0l2.268,-3.888l9.072,0l0.468,3.888l-2.664,0l-0.828,3.6l8.82,0l0.864,-3.636l-2.412,0l-2.016,-16.452l2.628,0l0.828,-3.6l-13.32,0l-0.828,3.6l2.844,0l-9.648,16.452l-2.124,0l-0.864,3.636ZM11.16,15.48l5.58,-9.504l1.116,9.504l-6.696,0Z"/><path d="M41.04,26.64c2.124,0 3.816,-1.368 4.752,-4.644l-1.584,-0.612c-0.792,2.196 -1.476,2.592 -2.016,2.592c-0.54,0 -0.828,-0.36 -0.828,-1.08c0,-0.324 0.072,-0.684 0.18,-1.116l1.152,-4.14c0.288,-0.972 0.396,-1.836 0.396,-2.628c0,-3.096 -1.872,-4.716 -4.14,-4.716c-2.124,0 -4.284,1.908 -5.364,3.924l0.792,-3.636l-6.156,0l-0.864,3.312l2.88,0l-3.132,12.456l4.032,0l2.304,-9.216c0.576,-2.34 1.692,-3.528 3.384,-3.528c1.332,0 2.16,0.828 2.16,2.196c0,0.396 -0.036,0.828 -0.18,1.296l-1.188,4.248c-0.18,0.612 -0.252,1.224 -0.252,1.8c0,2.016 1.188,3.492 3.672,3.492Z"/><path d="M52.28,33.552c2.7,0 4.572,-0.648 5.94,-2.016c1.152,-1.152 1.764,-2.736 2.232,-4.788l3.708,-16.164l-3.6,0l-1.008,3.024c-0.648,-1.512 -2.124,-3.312 -4.608,-3.312c-4.968,0 -8.244,4.572 -8.244,9.576c0,3.636 1.872,6.156 5.508,6.156c2.124,0 3.852,-1.224 5.184,-2.916l-0.612,2.628c-0.36,1.584 -0.756,2.772 -1.512,3.528c-0.828,0.828 -1.836,1.188 -3.204,1.188c-1.044,0 -1.872,-0.252 -2.196,-0.468c0.108,-0.18 0.18,-0.576 0.18,-0.864c0,-1.224 -1.008,-2.196 -2.232,-2.196c-1.224,0 -2.268,0.9 -2.268,2.376c0,0.936 0.252,1.584 1.008,2.34c1.044,1.044 3.456,1.908 5.724,1.908ZM54.116,22.68c-1.872,0 -3.312,-1.224 -3.312,-3.168c0,-3.24 2.16,-5.724 4.788,-5.724c1.872,0 3.348,1.224 3.348,3.168c0,3.24 -2.196,5.724 -4.824,5.724Z"/><path d="M79.612,19.8c0.396,-1.26 0.576,-2.412 0.576,-3.42c0,-3.924 -2.772,-6.084 -6.768,-6.084c-4.716,0 -8.532,4.212 -8.532,9.576c0,4.356 3.564,6.768 7.416,6.768c2.34,0 3.708,-0.288 5.364,-1.08l0.756,-3.6c-1.98,1.044 -3.636,1.404 -5.22,1.404c-2.988,0 -4.428,-1.548 -4.428,-3.312l0,-0.252l10.836,0ZM73.492,13.536c1.908,0 2.916,0.9 2.916,2.448c0,0.324 -0.036,0.684 -0.144,1.08l-7.056,0c0.756,-2.16 2.304,-3.528 4.284,-3.528Z"/><path d="M85.524,26.64c2.052,0 3.852,-0.936 4.932,-4.644l-1.584,-0.612c-0.792,2.196 -1.476,2.592 -2.124,2.592c-0.576,0 -0.828,-0.324 -0.828,-1.116c0,-0.396 0.108,-0.9 0.252,-1.548l4.932,-21.312l-6.84,0l-0.864,3.312l2.952,0l-4.176,18.036c-0.144,0.612 -0.216,1.188 -0.216,1.728c0,2.16 1.116,3.564 3.564,3.564Z"/><path d="M97.628,26.352l16.92,0l1.62,-6.948l-3.924,0l-0.792,3.348l-6.408,0l3.816,-16.452l3.024,0l0.828,-3.636l-9.972,0l-0.828,3.636l2.88,0l-3.816,16.416l-2.52,0l-0.828,3.636Z"/><path d="M123.584,26.64c2.448,0 4.356,-1.62 5.652,-3.564c0,2.16 1.188,3.564 3.24,3.564c1.728,0 3.744,-0.936 4.824,-4.644l-1.584,-0.612c-0.792,2.196 -1.548,2.592 -2.016,2.592c-0.54,0 -0.792,-0.324 -0.792,-0.972c0,-0.396 0.108,-1.008 0.288,-1.692l2.7,-10.728l-3.672,0l-1.08,3.24c-0.648,-1.8 -2.34,-3.528 -4.428,-3.528c-4.572,0 -8.208,4.788 -8.208,10.224c0,3.672 2.124,6.12 5.076,6.12ZM125.456,23.292c-1.908,0 -2.844,-1.476 -2.844,-3.348c0,-3.204 2.124,-6.156 4.752,-6.156c2.088,0 3.096,1.296 3.096,3.348c0,3.384 -2.376,6.156 -5.004,6.156Z"/><path d="M142.664,26.352l1.332,-5.652l1.512,-0.468l1.656,3.816c0.36,0.864 0.828,1.476 1.368,1.908c0.612,0.504 1.368,0.684 2.052,0.684c1.728,0 3.348,-0.828 4.284,-5.112l-1.584,-0.504c-0.684,2.376 -1.152,2.952 -1.62,2.952c-0.216,0 -0.396,-0.072 -0.576,-0.288c-0.216,-0.252 -0.432,-0.648 -0.684,-1.188l-1.44,-3.132c4.032,-1.836 5.76,-3.888 5.76,-6.372c0,-1.62 -1.116,-2.7 -2.484,-2.7c-1.26,0 -2.34,1.044 -2.34,2.304c0,0.756 0.36,1.368 1.08,1.872c-0.684,1.08 -2.52,2.16 -6.516,3.348l4.104,-17.82l-6.732,0l-0.864,3.312l2.952,0l-5.292,23.04l4.032,0Z"/><path d="M170.86,19.8c0.396,-1.26 0.576,-2.412 0.576,-3.42c0,-3.924 -2.772,-6.084 -6.768,-6.084c-4.716,0 -8.532,4.212 -8.532,9.576c0,4.356 3.564,6.768 7.416,6.768c2.34,0 3.708,-0.288 5.364,-1.08l0.756,-3.6c-1.98,1.044 -3.636,1.404 -5.22,1.404c-2.988,0 -4.428,-1.548 -4.428,-3.312l0,-0.252l10.836,0ZM164.74,13.536c1.908,0 2.916,0.9 2.916,2.448c0,0.324 -0.036,0.684 -0.144,1.08l-7.056,0c0.756,-2.16 2.304,-3.528 4.284,-3.528Z"/><path d="M179.076,26.64c4.32,0 6.804,-1.836 6.804,-5.004c0,-2.484 -2.16,-3.672 -4.212,-4.572c-1.8,-0.792 -3.492,-1.404 -3.492,-2.52c0,-1.044 1.332,-1.44 2.628,-1.44c0.612,0 1.26,0.108 1.764,0.288c0.216,0.072 0.36,0.144 0.504,0.216c-0.18,0.432 -0.216,0.576 -0.216,0.864c0,1.08 0.936,2.016 2.016,2.016c1.116,0 2.052,-0.864 2.052,-2.196c0,-0.792 -0.324,-1.548 -0.936,-2.16c-1.08,-1.116 -2.988,-1.836 -5.22,-1.836c-4.356,0 -6.516,2.412 -6.516,4.968c0,2.664 2.232,3.78 4.284,4.608c1.764,0.756 3.42,1.296 3.42,2.484c0,1.044 -1.368,1.476 -2.844,1.476c-0.972,0 -1.908,-0.144 -2.628,-0.468c-0.216,-0.108 -0.396,-0.216 -0.54,-0.324c0.108,-0.144 0.216,-0.576 0.216,-0.864c0,-1.08 -0.9,-1.98 -1.98,-1.98c-1.152,0 -2.052,0.864 -2.052,2.232c0,0.828 0.396,1.584 1.044,2.232c1.188,1.188 3.312,1.98 5.904,1.98Z"/></g></svg>